G75*
G70*
%OFA0B0*%
%FSLAX24Y24*%
%IPPOS*%
%LPD*%
%AMOC8*
5,1,8,0,0,1.08239X$1,22.5*
%
%ADD10C,0.0236*%
%ADD11R,0.0727X0.0140*%
%ADD12R,0.0787X0.0197*%
%ADD13R,0.0058X0.0412*%
%ADD14R,0.0412X0.0058*%
%ADD15R,0.0688X0.0491*%
%ADD16R,0.0491X0.0649*%
%ADD17R,0.0531X0.0216*%
%ADD18R,0.0294X0.0216*%
%ADD19R,0.0964X0.0196*%
%ADD20R,0.0216X0.0294*%
%ADD21R,0.0491X0.1121*%
%ADD22R,0.0373X0.0334*%
%ADD23R,0.0255X0.0255*%
%ADD24R,0.1279X0.0334*%
%ADD25R,0.1000X0.1000*%
%ADD26R,0.0334X0.0373*%
%ADD27R,0.0196X0.0050*%
%ADD28R,0.0050X0.0196*%
%ADD29R,0.0335X0.0150*%
%ADD30R,0.0150X0.0335*%
%ADD31R,0.0940X0.0940*%
%ADD32R,0.0570X0.0491*%
%ADD33R,0.0511X0.0452*%
%ADD34R,0.0688X0.0688*%
%ADD35R,0.0097X0.0471*%
D10*
X028447Y009253D03*
X029234Y009253D03*
X030021Y009253D03*
X030021Y010041D03*
X029234Y010041D03*
X028447Y010041D03*
X028447Y010828D03*
X029234Y010828D03*
X030021Y010828D03*
X030021Y011615D03*
X029234Y011615D03*
X028447Y011615D03*
X028447Y012403D03*
X029234Y012403D03*
X030021Y012403D03*
X031202Y012403D03*
X031990Y012403D03*
X032777Y012403D03*
X032777Y011615D03*
X031990Y011615D03*
X031202Y011615D03*
X031202Y010041D03*
X031990Y010041D03*
X032777Y010041D03*
X032777Y009253D03*
X031990Y009253D03*
X031202Y009253D03*
X031202Y008466D03*
X031990Y008466D03*
X032777Y008466D03*
X032777Y013190D03*
X031990Y013190D03*
X031202Y013190D03*
D11*
X034155Y013190D03*
X034155Y012796D03*
X034155Y012403D03*
X034155Y012009D03*
X034155Y011222D03*
X034155Y010434D03*
X034155Y009647D03*
X034155Y009253D03*
X034155Y008859D03*
X034155Y008466D03*
X027069Y008466D03*
X027069Y009253D03*
X027069Y009647D03*
X027069Y010041D03*
X027069Y010434D03*
X027069Y010828D03*
X027069Y011222D03*
X027069Y011615D03*
X027069Y012009D03*
X027069Y012403D03*
X027069Y013190D03*
D12*
X027071Y013584D03*
X027071Y012796D03*
X027071Y008859D03*
X027071Y008072D03*
X034153Y008072D03*
X034153Y010041D03*
X034153Y010828D03*
X034153Y011615D03*
X034153Y013584D03*
D13*
X020724Y015629D03*
X020527Y015629D03*
X020330Y015629D03*
X020134Y015629D03*
X019937Y015629D03*
X019740Y015629D03*
X019543Y015629D03*
X019346Y015629D03*
X019149Y015629D03*
X018952Y015629D03*
X018756Y015629D03*
X018559Y015629D03*
X018362Y015629D03*
X018165Y015629D03*
X017968Y015629D03*
X017771Y015629D03*
X017574Y015629D03*
X017378Y015629D03*
X017181Y015629D03*
X016984Y015629D03*
X016787Y015629D03*
X016590Y015629D03*
X016393Y015629D03*
X016197Y015629D03*
X016000Y015629D03*
X016000Y009527D03*
X016197Y009527D03*
X016393Y009527D03*
X016590Y009527D03*
X016787Y009527D03*
X016984Y009527D03*
X017181Y009527D03*
X017378Y009527D03*
X017574Y009527D03*
X017771Y009527D03*
X017968Y009527D03*
X018165Y009527D03*
X018362Y009527D03*
X018559Y009527D03*
X018756Y009527D03*
X018952Y009527D03*
X019149Y009527D03*
X019346Y009527D03*
X019543Y009527D03*
X019740Y009527D03*
X019937Y009527D03*
X020134Y009527D03*
X020330Y009527D03*
X020527Y009527D03*
X020724Y009527D03*
D14*
X021413Y010209D03*
X021413Y010413D03*
X021413Y010616D03*
X021413Y010806D03*
X021413Y011003D03*
X021413Y011200D03*
X021413Y011397D03*
X021413Y011594D03*
X021413Y011791D03*
X021413Y011987D03*
X021413Y012184D03*
X021413Y012381D03*
X021413Y012578D03*
X021413Y012775D03*
X021413Y012972D03*
X021413Y013169D03*
X021413Y013365D03*
X021413Y013562D03*
X021413Y013759D03*
X021413Y013956D03*
X021413Y014153D03*
X021413Y014350D03*
X021413Y014546D03*
X021413Y014743D03*
X021413Y014940D03*
X015311Y014940D03*
X015311Y014743D03*
X015311Y014546D03*
X015311Y014350D03*
X015311Y014153D03*
X015311Y013956D03*
X015311Y013759D03*
X015311Y013562D03*
X015311Y013365D03*
X015311Y013169D03*
X015311Y012972D03*
X015311Y012775D03*
X015311Y012578D03*
X015311Y012381D03*
X015311Y012184D03*
X015311Y011987D03*
X015311Y011791D03*
X015311Y011594D03*
X015311Y011397D03*
X015311Y011200D03*
X015311Y011003D03*
X015311Y010806D03*
X015311Y010609D03*
X015311Y010413D03*
X015311Y010216D03*
D15*
X016621Y007800D03*
X016621Y006856D03*
X018353Y006856D03*
X018353Y007800D03*
X002552Y018349D03*
X002906Y023546D03*
D16*
X008064Y022916D03*
X008064Y020553D03*
D17*
X004205Y020593D03*
X004048Y020160D03*
X004048Y021026D03*
X003890Y021459D03*
X004048Y021892D03*
X003890Y022325D03*
X004048Y022758D03*
X004048Y023191D03*
D18*
X014362Y006322D03*
X014862Y006322D03*
X015362Y006322D03*
X015362Y006834D03*
X014862Y006834D03*
X014362Y006834D03*
X015862Y007322D03*
X015862Y007834D03*
X019112Y007697D03*
X019612Y007822D03*
X019612Y008334D03*
X019112Y008209D03*
X020487Y008334D03*
X020487Y007822D03*
X019112Y006834D03*
X019112Y006322D03*
X024737Y012447D03*
X024737Y012959D03*
X025612Y012959D03*
X025612Y012447D03*
X027987Y015697D03*
X027987Y016209D03*
X029112Y016209D03*
X029112Y015697D03*
X022612Y017072D03*
X022612Y017584D03*
X016362Y017334D03*
X016362Y016822D03*
X015487Y016572D03*
X015487Y017084D03*
X008862Y022822D03*
X008862Y023334D03*
X030737Y022209D03*
X030737Y021697D03*
D19*
X008715Y016703D03*
X008715Y016203D03*
X008715Y015703D03*
X008715Y015203D03*
X008715Y014703D03*
X007259Y014703D03*
X007259Y015203D03*
X007259Y015703D03*
X007259Y016203D03*
X007259Y016703D03*
D20*
X005993Y017203D03*
X005481Y017203D03*
X005368Y014828D03*
X004856Y014828D03*
X003493Y014828D03*
X002981Y014828D03*
X002743Y011453D03*
X002231Y011453D03*
X004106Y010203D03*
X004618Y010203D03*
X005481Y011078D03*
X005993Y011078D03*
X013606Y010328D03*
X014118Y010328D03*
X016481Y008953D03*
X016993Y008953D03*
X022356Y010578D03*
X022868Y010578D03*
X024481Y009953D03*
X024993Y009953D03*
X024993Y009203D03*
X024481Y009203D03*
X022868Y011703D03*
X022356Y011703D03*
X022356Y012203D03*
X022868Y012203D03*
X023231Y013203D03*
X023743Y013203D03*
X024481Y013578D03*
X024993Y013578D03*
X025231Y014828D03*
X025743Y014828D03*
X025743Y015453D03*
X025231Y015453D03*
X023243Y014703D03*
X022731Y014703D03*
X022743Y015453D03*
X022231Y015453D03*
X021743Y017203D03*
X021231Y017203D03*
X021231Y020203D03*
X021743Y020203D03*
X031481Y015828D03*
X031993Y015828D03*
D21*
X023237Y009648D03*
X023237Y007758D03*
D22*
X031402Y006828D03*
X032072Y006828D03*
X025197Y014203D03*
X024527Y014203D03*
D23*
X030067Y015828D03*
X030657Y015828D03*
X030907Y006828D03*
X030317Y006828D03*
X015362Y007408D03*
X014862Y007408D03*
X014362Y007408D03*
X014362Y007998D03*
X014862Y007998D03*
X015362Y007998D03*
D24*
X028761Y017239D03*
X028761Y017909D03*
X028761Y018578D03*
X028761Y019247D03*
X028761Y019917D03*
D25*
X031362Y019578D03*
X033362Y019578D03*
X033362Y017578D03*
X031362Y017578D03*
D26*
X027487Y017868D03*
X027487Y018538D03*
D27*
X004651Y012123D03*
X004651Y011926D03*
X004651Y011730D03*
X004651Y011533D03*
X003573Y011533D03*
X003573Y011730D03*
X003573Y011926D03*
X003573Y012123D03*
D28*
X003817Y012367D03*
X004013Y012367D03*
X004210Y012367D03*
X004407Y012367D03*
X004407Y011289D03*
X004210Y011289D03*
X004013Y011289D03*
X003817Y011289D03*
D29*
X020709Y018211D03*
X020709Y018408D03*
X020709Y018605D03*
X020709Y018801D03*
X020709Y018998D03*
X020709Y019195D03*
X022264Y019195D03*
X022264Y018998D03*
X022264Y018801D03*
X022264Y018605D03*
X022264Y018408D03*
X022264Y018211D03*
D30*
X021979Y017925D03*
X021782Y017925D03*
X021585Y017925D03*
X021388Y017925D03*
X021192Y017925D03*
X020995Y017925D03*
X020995Y019481D03*
X021192Y019481D03*
X021388Y019481D03*
X021585Y019481D03*
X021782Y019481D03*
X021979Y019481D03*
D31*
X017662Y021453D03*
X015812Y021453D03*
D32*
X013372Y022238D03*
X010852Y022238D03*
D33*
X010763Y023203D03*
X013460Y023203D03*
D34*
X012584Y023203D03*
X011639Y023203D03*
D35*
X011600Y022150D03*
X011856Y022150D03*
X012112Y022150D03*
X012368Y022150D03*
X012624Y022150D03*
M02*
